:FULLY-SPECIFIED
:FORCE-ALL-JOINTS-BE-3DOF
:DEGREES
442
root 2.00359 15.5702 -8.85278 5.43041 13.452 -13.1669
lfemur -52.4164 22.795 -9.10633
ltibia 61.045 -0 0
lfoot -17.9714 0.0079012 0.0659273
ltoes 1.98413 -0 0
rfemur -11.3936 -12.393 13.4159
rtibia 41.606 -0 0
rfoot -5.82404 -15.5691 0.222212
rtoes -38.6548 0 0
lowerback 4.2188 1.58617 5.41774
upperback 0.72487 2.38267 1.31701
thorax -1.48325 1.16806 -1.81578
lowerneck -6.99627 -1.0748 4.60555
upperneck 0.778334 -1.81757 -0.01131
head 1.40659 -0.879661 -0.835854
lclavicle -3.86609e-14 3.29059e-15 -4.06858e-31
lhumerus -42.3119 -23.2268 100.308
lradius 52.8975 -0 0
lwrist 5.74832 0 0
lhand -27.3755 -7.50704 0.0849853
lfingers 7.12502 -0 0
lthumb -0.782757 22.4562 0.0816193
rclavicle -3.86609e-14 3.29059e-15 -4.06858e-31
rhumerus -48.6239 -0.393833 -86.7413
rradius 65.3923 -0 0
rwrist 10.5454 0 0
rhand -26.3891 -22.8696 0.0534125
rfingers 7.12502 -0 0
rthumb 0.169789 -52.8373 0.0521042
443
root 1.9297 15.553 -8.79103 5.39719 15.0986 -13.493
lfemur -53.2098 23.2168 -9.16598
ltibia 61.4436 -0 0
lfoot -18.0692 -0.402973 0.0560979
ltoes 1.95851 -0 0
rfemur -10.3859 -11.8977 13.187
rtibia 40.2316 -0 0
rfoot -6.10344 -16.0532 0.189057
rtoes -40.8659 0 0
lowerback 4.14992 1.49258 5.61214
upperback 0.686003 2.26671 1.43217
thorax -1.48585 1.10914 -1.79662
lowerneck -7.01868 -1.20512 4.50514
upperneck 0.687143 -1.98238 0.0189996
head 1.37449 -0.963956 -0.814481
lclavicle -3.9233e-14 2.8557e-15 -3.46241e-31
lhumerus -42.2247 -23.4117 100.493
lradius 52.9685 -0 0
lwrist 5.36537 0 0
lhand -27.5674 -7.77726 0.0723178
lfingers 7.12502 -0 0
lthumb -0.968152 22.1875 0.0694537
rclavicle -3.9233e-14 2.8557e-15 -3.46241e-31
rhumerus -48.7352 -0.697518 -86.6074
rradius 65.3798 -0 0
rwrist 10.6235 0 0
rhand -26.5618 -23.0585 0.0454525
rfingers 7.12502 -0 0
rthumb 0.00301318 -53.0281 0.0443393
444
root 1.86149 15.5372 -8.73402 5.35761 16.6184 -13.7973
lfemur -53.9449 23.6054 -9.22686
ltibia 61.8118 -0 0
lfoot -18.1595 -0.782399 0.0463975
ltoes 1.93486 -0 0
rfemur -9.45905 -11.437 12.984
rtibia 38.9628 -0 0
rfoot -6.36104 -16.4998 0.156365
rtoes -42.907 0 0
lowerback 4.08605 1.4064 5.7917
upperback 0.649927 2.15977 1.53851
thorax -1.48828 1.05474 -1.77893
lowerneck -7.03915 -1.32544 4.41251
upperneck 0.602876 -2.13446 0.0472146
head 1.34483 -1.04176 -0.794709
lclavicle -3.97611e-14 2.45425e-15 -2.8643e-31
lhumerus -42.1447 -23.5825 100.663
lradius 53.0339 -0 0
lwrist 5.01205 0 0
lhand -27.7446 -8.02665 0.0598208
lfingers 7.12502 -0 0
lthumb -1.13924 21.9394 0.0574518
rclavicle -3.97611e-14 2.45425e-15 -2.8643e-31
rhumerus -48.8385 -0.977621 -86.4832
rradius 65.3681 -0 0
rwrist 10.6955 0 0
rhand -26.7212 -23.2329 0.0375992
rfingers 7.12502 -0 0
rthumb -0.150917 -53.2043 0.0366783
445
root 1.79946 15.5228 -8.68217 5.31395 18.0005 -14.0772
lfemur -54.6157 23.9582 -9.28713
ltibia 62.1464 -0 0
lfoot -18.2415 -1.12728 0.0370614
ltoes 1.91335 -0 0
rfemur -8.61886 -11.0153 12.8063
rtibia 37.8089 -0 0
rfoot -6.59509 -16.9059 0.124889
rtoes -44.7633 0 0
lowerback 4.02774 1.32819 5.95508
upperback 0.61694 2.06254 1.63531
thorax -1.4905 1.00528 -1.76284
lowerneck -7.05761 -1.43492 4.32827
upperneck 0.526165 -2.27275 0.0730723
head 1.31783 -1.11251 -0.776691
lclavicle -4.02414e-14 2.08914e-15 -2.28821e-31
lhumerus -42.0723 -23.738 100.818
lradius 53.0935 -0 0
lwrist 4.69072 0 0
lhand -27.9057 -8.25344 0.0477858
lfingers 7.12502 -0 0
lthumb -1.29479 21.7139 0.0458935
rclavicle -4.02414e-14 2.08914e-15 -2.28821e-31
rhumerus -48.933 -1.23217 -86.3698
rradius 65.3576 -0 0
rwrist 10.761 0 0
rhand -26.8662 -23.3915 0.0300357
rfingers 7.12502 -0 0
rthumb -0.290891 -53.3644 0.0293001
446
root 1.74409 15.51 -8.6359 5.26865 19.2338 -14.3298
lfemur -55.2164 24.2726 -9.34489
ltibia 62.4451 -0 0
lfoot -18.3147 -1.43507 0.0283121
ltoes 1.89415 -0 0
rfemur -7.87112 -10.6368 12.6532
rtibia 36.779 -0 0
rfoot -6.80379 -17.2682 0.0953972
rtoes -46.4201 0 0
lowerback 3.9755 1.25853 6.10095
upperback 0.587362 1.97581 1.72174
thorax -1.49249 0.961132 -1.74848
lowerneck -7.07394 -1.53265 4.25312
upperneck 0.457642 -2.39614 0.096309
head 1.29372 -1.17565 -0.760582
lclavicle -4.067e-14 1.76328e-15 -1.7482e-31
lhumerus -42.008 -23.877 100.956
lradius 53.1466 -0 0
lwrist 4.40392 0 0
lhand -28.0494 -8.45582 0.0365062
lfingers 7.12502 -0 0
lthumb -1.43359 21.5126 0.0350606
rclavicle -4.067e-14 1.76328e-15 -1.7482e-31
rhumerus -49.0178 -1.4592 -86.2682
rradius 65.3481 -0 0
rwrist 10.8194 0 0
rhand -26.9955 -23.533 0.0229464
rfingers 7.12502 -0 0
rthumb -0.415801 -53.5074 0.0223845
447
root 1.69589 15.4988 -8.59561 5.2242 20.3074 -14.5523
lfemur -55.7408 24.5458 -9.39823
ltibia 62.7051 -0 0
lfoot -18.3783 -1.70305 0.0203747
ltoes 1.87743 -0 0
rfemur -7.2217 -10.3057 12.5241
rtibia 35.8823 -0 0
rfoot -6.98539 -17.5837 0.0686386
rtoes -47.8625 0 0
lowerback 3.92989 1.198 6.22801
upperback 0.561504 1.90034 1.79702
thorax -1.49423 0.922696 -1.73598
lowerneck -7.08806 -1.61776 4.18771
upperneck 0.397937 -2.50354 0.116662
head 1.27271 -1.23061 -0.746536
lclavicle -4.10432e-14 1.47957e-15 -1.25819e-31
lhumerus -41.9523 -23.9982 101.076
lradius 53.1929 -0 0
lwrist 4.15422 0 0
lhand -28.1745 -8.63199 0.0262724
lfingers 7.12502 -0 0
lthumb -1.55439 21.3374 0.0252321
rclavicle -4.10432e-14 1.47957e-15 -1.25819e-31
rhumerus -49.0919 -1.65674 -86.1795
rradius 65.3399 -0 0
rwrist 10.8703 0 0
rhand -27.1081 -23.6562 0.0165142
rfingers 7.12502 -0 0
rthumb -0.524538 -53.6318 0.0161098
